[Header]
FileType HTR
DataType HTRS
FileVersion 1
NumSegments 73
NumFrames 2
DataFrameRate 24
EulerRotationOrder ZYX
CalibrationUnits mm
RotationUnits Degrees
GlobalAxisofGravity Y
BoneLengthAxis Y
ScaleFactor 1.0
[SegmentNames&Hierarchy]
Hips	GLOBAL
Spine	Hips
Spine1	Spine
Spine2	Spine1
Neck	Spine2
Head	Neck
HeadEnd	Head
RightEye	Head
LeftEye	Head
RightShoulder	Spine2
RightArm	RightShoulder
RightForeArm	RightArm
RightHand	RightForeArm
RightFingerBase	RightHand
RightHandThumb1	RightFingerBase
RightHandThumb2	RightHandThumb1
RightHandThumb3	RightHandThumb2
RightHandThumb4	RightHandThumb3
RightHandIndex0	RightFingerBase
RightHandIndex1	RightHandIndex0
RightHandIndex2	RightHandIndex1
RightHandIndex3	RightHandIndex2
RightHandIndex4	RightHandIndex3
RightHandMiddle1	RightFingerBase
RightHandMiddle2	RightHandMiddle1
RightHandMiddle3	RightHandMiddle2
RightHandMiddle4	RightHandMiddle3
RightHandRing1	RightFingerBase
RightHandRing2	RightHandRing1
RightHandRing3	RightHandRing2
RightHandRing4	RightHandRing3
RightHandPinky0	RightFingerBase
RightHandPinky1	RightHandPinky0
RightHandPinky2	RightHandPinky1
RightHandPinky3	RightHandPinky2
RightHandPinky4	RightHandPinky3
LeftShoulder	Spine2
LeftArm	LeftShoulder
LeftForeArm	LeftArm
LeftHand	LeftForeArm
LeftFingerBase	LeftHand
LeftHandThumb1	LeftFingerBase
LeftHandThumb2	LeftHandThumb1
LeftHandThumb3	LeftHandThumb2
LeftHandThumb4	LeftHandThumb3
LeftHandIndex0	LeftFingerBase
LeftHandIndex1	LeftHandIndex0
LeftHandIndex2	LeftHandIndex1
LeftHandIndex3	LeftHandIndex2
LeftHandIndex4	LeftHandIndex3
LeftHandMiddle1	LeftFingerBase
LeftHandMiddle2	LeftHandMiddle1
LeftHandMiddle3	LeftHandMiddle2
LeftHandMiddle4	LeftHandMiddle3
LeftHandRing1	LeftFingerBase
LeftHandRing2	LeftHandRing1
LeftHandRing3	LeftHandRing2
LeftHandRing4	LeftHandRing3
LeftHandPinky0	LeftFingerBase
LeftHandPinky1	LeftHandPinky0
LeftHandPinky2	LeftHandPinky1
LeftHandPinky3	LeftHandPinky2
LeftHandPinky4	LeftHandPinky3
RightUpLeg	Hips
RightLeg	RightUpLeg
RightFoot	RightLeg
RightToeBase	RightFoot
RightToeEnd	RightToeBase
LeftUpLeg	Hips
LeftLeg	LeftUpLeg
LeftFoot	LeftLeg
LeftToeBase	LeftFoot
LeftToeEnd	LeftToeBase
[BasePosition]
Hips	0	0	0	-90	0	0	1
Spine	0	0	0	-90	-90	0	1
Spine1	0	0	0	0	-6.913477599	0	1
Spine2	0	0	0	0	-2.963399918	0	1
Neck	0	0	0	0	28.72983957	0	1
Head	0	0	0	0	-18.85296205	0	1
HeadEnd	0	0	0	180	7.062250077e-031	90	1
RightEye	0	0	0	-0	90	0	1
LeftEye	0	0	0	-0	90	0	1
RightShoulder	0	0	0	-9.832471	-0.9401690171	-95.40830344	1
RightArm	0	0	0	0	-1.125996519	5.48917453	1
RightForeArm	0	0	0	0	2.436994823	0	1
RightHand	0	0	0	2.511548878	9.613686614	14.71609442	1
RightFingerBase	0	0	0	0	0	0	1
RightHandThumb1	0	0	0	-116.2812282	42.48690065	-50.67663625	1
RightHandThumb2	0	0	0	-84.21951428	-17.70222334	7.38661549	1
RightHandThumb3	0	0	0	-89.5340698	-1.061838382	-6.180390122	1
RightHandThumb4	0	0	0	-180	40.09965989	-156.3109829	1
RightHandIndex0	0	0	0	4.427842418	26.53425936	-4.671175846	1
RightHandIndex1	0	0	0	-1.006290781	-34.5965515	-7.017277489	1
RightHandIndex2	0	0	0	-0.1211372881	1.365391446	-6.528981104	1
RightHandIndex3	0	0	0	0.718493931	-5.844290023	-1.952116853	1
RightHandIndex4	0	0	0	-180	-1.007680903	-173.015521	1
RightHandMiddle1	0	0	0	1.212759453	-9.423008964	-21.87251019	1
RightHandMiddle2	0	0	0	-0.06391764782	0.3175210117	-4.114015207	1
RightHandMiddle3	0	0	0	-0.02837742177	0.1833479743	2.583455052	1
RightHandMiddle4	0	0	0	-180	2.253742799	-171.2019661	1
RightHandRing1	0	0	0	1.024036159	-9.14512951	-20.92166287	1
RightHandRing2	0	0	0	-0.2639380485	1.120712185	-6.918198661	1
RightHandRing3	0	0	0	0.8624562677	-3.223623788	-1.736364634	1
RightHandRing4	0	0	0	-180	-0.142962497	-165.037383	1
RightHandPinky0	0	0	0	-3.644848491	-31.10321667	-7.475102696	1
RightHandPinky1	0	0	0	-2.230097681	22.3754039	-11.85603488	1
RightHandPinky2	0	0	0	0.3468517139	-1.93809926	-4.748723167	1
RightHandPinky3	0	0	0	0.3843380283	-3.03717749	2.92708613	1
RightHandPinky4	0	0	0	-180	-2.600102366	-172.7946087	1
LeftShoulder	0	0	0	170.167529	0.9401690171	-84.59169656	1
LeftArm	0	0	0	-6.213220642e-018	-1.125996519	5.48917453	1
LeftForeArm	0	0	0	3.570089123e-006	2.436994823	0	1
LeftHand	0	0	0	2.511545379	9.613687521	14.71609377	1
LeftFingerBase	0	0	0	1.707547293e-006	-0	0	1
LeftHandThumb1	0	0	0	-116.2812297	42.48689933	-50.67663724	1
LeftHandThumb2	0	0	0	8.037892136	-7.035043832	-17.84100306	1
LeftHandThumb3	0	0	0	0.3509520673	6.17932467	-1.068044571	1
LeftHandThumb4	0	0	0	74.2196411	17.89814003	137.3999222	1
LeftHandIndex0	0	0	0	4.427840516	26.53425923	-4.671176696	1
LeftHandIndex1	0	0	0	-1.006290781	-34.5965515	-7.017277489	1
LeftHandIndex2	0	0	0	-0.1211372881	1.365391446	-6.528981104	1
LeftHandIndex3	0	0	0	0.718493931	-5.844290023	-1.952116853	1
LeftHandIndex4	0	0	0	-180	-1.007680903	-173.015521	1
LeftHandMiddle1	0	0	0	1.212757847	-9.4230096	-21.87250993	1
LeftHandMiddle2	0	0	0	-0.06391764786	0.3175210117	-4.114015207	1
LeftHandMiddle3	0	0	0	-0.02837742181	0.1833479743	2.583455052	1
LeftHandMiddle4	0	0	0	-180	2.253742799	-171.2019661	1
LeftHandRing1	0	0	0	1.024034543	-9.14513012	-20.92166261	1
LeftHandRing2	0	0	0	-0.2639380485	1.120712185	-6.918198661	1
LeftHandRing3	0	0	0	0.8624562677	-3.223623788	-1.736364634	1
LeftHandRing4	0	0	0	-180	-0.142962497	-165.037383	1
LeftHandPinky0	0	0	0	-3.644850468	-31.10321689	-7.475101675	1
LeftHandPinky1	0	0	0	-2.230097681	22.3754039	-11.85603488	1
LeftHandPinky2	0	0	0	0.3468517139	-1.93809926	-4.748723167	1
LeftHandPinky3	0	0	0	0.3843380283	-3.03717749	2.92708613	1
LeftHandPinky4	0	0	0	-180	-2.600102366	-172.7946087	1
RightUpLeg	0	0	0	-180	88.31591738	-90	1
RightLeg	0	0	0	0	-3.307220847	0	1
RightFoot	0	0	0	-94.4147791	68.81735023	-4.072373061	1
RightToeBase	0	0	0	0	-0	7.131076561	1
RightToeEnd	0	0	0	0	88.40548641	15.61803979	1
LeftUpLeg	0	0	0	1.082242636e-013	-88.31591738	90	1
LeftLeg	0	0	0	0	-3.307220847	0	1
LeftFoot	0	0	0	-94.4147791	68.81735023	-4.072373061	1
LeftToeBase	0	0	0	0	-0	7.131076561	1
LeftToeEnd	0	0	0	0	88.40548641	15.61803979	1
[Hips]
113	-124.4585724	1010.009705	-518.6264648	-6.019613266	6.502049923	-10.56044006	1.0
114	-118.9421082	1015.739014	-520.8138428	-5.179657459	5.655424118	-11.87159824	1.0
[Spine]
113	0	1.036292464e-014	46.67046356	3.83494544	3.148317814	-9.783537865	1.0
114	0	1.036292464e-014	46.67046356	3.833378553	2.544301987	-9.032779694	1.0
[Spine1]
113	93.34092712	-2.072584929e-014	1.776356839e-014	3.349256516	7.289618492	-1.650002003	1.0
114	93.34092712	-2.072584929e-014	1.776356839e-014	3.39337945	7.246526718	-1.540477991	1.0
[Spine2]
113	110.2689362	-2.430659467e-014	8.881784197e-015	1.406990767	7.566168785	3.121795416	1.0
114	110.2689362	-2.430659467e-014	8.881784197e-015	1.386449337	7.406980038	2.833431482	1.0
[Neck]
113	272.1245117	-6.393256286e-014	-102.6588287	0.4752783477	6.032294273	6.205753326	1.0
114	272.1245117	-6.393256286e-014	-102.6588287	0.6958175898	5.728854656	6.504164696	1.0
[Head]
113	109.2242432	-2.491077819e-014	-7.993605777e-014	0.8548817039	-14.27287006	-6.060484409	1.0
114	109.2242432	-2.491077819e-014	-7.993605777e-014	2.035553455	-14.50280762	-5.532025337	1.0
[HeadEnd]
113	176.9316254	-3.928671285e-014	4.91083953e-014	0	0	0	1.0
114	176.9316254	-3.928671285e-014	4.91083953e-014	0	0	0	1.0
[RightEye]
113	56.50638199	-33.11345673	-70.58847046	-3.114994834e-014	-1.272221887e-014	8.474700379e-030	1.0
114	56.50638199	-33.11345673	-70.58847046	-3.114994834e-014	-1.272221887e-014	8.474700379e-030	1.0
[LeftEye]
113	56.50532532	33.1135025	-70.58802795	7.016709127e-015	-1.272221887e-014	0	1.0
114	56.50532532	33.1135025	-70.58802795	7.016709127e-015	-1.272221887e-014	0	1.0
[RightShoulder]
113	238.428894	-15.55305099	-71.2572937	0.9697722793	10.49967861	8.366642952	1.0
114	238.428894	-15.55305099	-71.2572937	1.384054899	10.70058632	8.540597916	1.0
[RightArm]
113	141.8920135	1.643130076e-013	-1.723798276e-014	-22.00850677	3.659925938	-59.67259979	1.0
114	141.8920135	1.643130076e-013	-1.723798276e-014	-22.25114441	4.361421585	-60.91212463	1.0
[RightForeArm]
113	295.651123	2.842170943e-013	8.604228441e-014	-5.530087583e-005	113.7171173	-3.103809649e-005	1.0
114	295.651123	2.842170943e-013	8.604228441e-014	-5.428763325e-005	113.9128418	-2.935944758e-005	1.0
[RightHand]
113	253.9360657	-2.842170943e-013	2.953193246e-013	-9.531230927	15.31025887	7.460800171	1.0
114	253.9360657	-2.842170943e-013	2.953193246e-013	-9.436971664	15.00838661	7.288208008	1.0
[RightFingerBase]
113	21.8163414	2.514308206e-013	1.609823386e-014	6.417718502e-017	0	3.666326526e-016	1.0
114	21.8163414	2.514308206e-013	1.609823386e-014	3.620251904e-017	0	3.699237991e-016	1.0
[RightHandThumb1]
113	0.315223217	-25.77882576	-34.99160004	90.00000763	-2.473897803e-005	1.720819682e-007	1.0
114	0.315223217	-25.77882576	-34.99160004	90.00000763	-2.489921826e-005	9.296277881e-008	1.0
[RightHandThumb2]
113	22.53543472	1.132427485e-013	7.771561172e-015	89.99996948	3.811679198e-005	1.786804569e-005	1.0
114	22.53543472	1.132427485e-013	7.771561172e-015	89.99996948	3.837525219e-005	1.787393012e-005	1.0
[RightHandThumb3]
113	35.04462051	1.759703494e-013	-9.103828802e-014	90.00001526	-3.098188245e-005	-4.17654428e-006	1.0
114	35.04462051	1.759703494e-013	-9.103828802e-014	90.00001526	-3.128133176e-005	-4.234451808e-006	1.0
[RightHandThumb4]
113	32.93183899	9.547918012e-014	-7.771561172e-014	1.23482605e-005	-8.866103599e-006	1.565928324e-005	1.0
114	32.93183899	9.547918012e-014	-7.771561172e-014	1.25683282e-005	-8.780646567e-006	1.581017386e-005	1.0
[RightHandIndex0]
113	7.951202393	-0.6496808529	-3.983492613	-1.550520407e-014	-3.180554719e-015	1.808940503e-014	1.0
114	7.951202393	-0.6496808529	-3.983492613	-1.550520407e-014	-3.180554719e-015	1.808940503e-014	1.0
[RightHandIndex1]
113	71.33556366	1.237898672e-013	-7.105427358e-014	3.836567703e-005	1.806502041e-005	1.028315728e-005	1.0
114	71.33556366	1.237898672e-013	-7.105427358e-014	3.856929106e-005	1.815387623e-005	1.038324172e-005	1.0
[RightHandIndex2]
113	42.80506134	-1.202260947e-013	-1.720845688e-014	3.459023355e-005	8.697083445e-007	1.277361298e-005	1.0
114	42.80506134	-1.202260947e-013	-1.720845688e-014	3.477498103e-005	8.350244229e-007	1.312328641e-005	1.0
[RightHandIndex3]
113	24.93278503	7.893859177e-013	2.220446049e-014	-3.826642569e-005	-2.454419337e-005	-9.662101547e-006	1.0
114	24.93278503	7.893859177e-013	2.220446049e-014	-3.869505599e-005	-2.465948819e-005	-9.93566573e-006	1.0
[RightHandIndex4]
113	28.05339432	3.783919792e-014	3.545774785e-014	-2.343522056e-006	5.438142125e-006	-3.615255082e-006	1.0
114	28.05339432	3.783919792e-014	3.545774785e-014	-2.555474566e-006	5.683302334e-006	-3.493536724e-006	1.0
[RightHandMiddle1]
113	67.74620819	0.8650525808	-12.21569538	6.182564539e-005	1.043966768e-005	-1.021476578e-006	1.0
114	67.74620819	0.8650525808	-12.21569538	6.233451859e-005	1.044912824e-005	-8.964405538e-007	1.0
[RightHandMiddle2]
113	49.20084381	-2.47555882e-014	1.387778781e-014	-1.961480848e-005	8.894418897e-006	-6.736408977e-006	1.0
114	49.20084381	-2.47555882e-014	1.387778781e-014	-1.986816278e-005	8.728194189e-006	-6.619168289e-006	1.0
[RightHandMiddle3]
113	31.13799858	-3.621538833e-013	4.30211422e-015	-2.738164403e-005	-1.795851495e-005	7.096032277e-006	1.0
114	31.13799858	-3.621538833e-013	4.30211422e-015	-2.76127721e-005	-1.794690252e-005	7.086804089e-006	1.0
[RightHandMiddle4]
113	26.62631035	2.316430468e-013	1.387778781e-015	-2.495619447e-005	-1.554150799e-006	4.264529252e-006	1.0
114	26.62631035	2.316430468e-013	1.387778781e-015	-2.504549047e-005	-1.60931063e-006	4.349034498e-006	1.0
[RightHandRing1]
113	63.15184784	-0.8650525808	12.21569538	4.03588092e-005	1.062108277e-005	1.136397168e-005	1.0
114	63.15184784	-0.8650525808	12.21569538	4.081284351e-005	1.050210176e-005	1.159998192e-005	1.0
[RightHandRing2]
113	47.11792755	1.379647264e-013	5.606626274e-014	-4.614542922e-005	-9.886619409e-006	-2.141887671e-005	1.0
114	47.11792755	1.379647264e-013	5.606626274e-014	-4.674820957e-005	-9.767334632e-006	-2.178467366e-005	1.0
[RightHandRing3]
113	28.71803093	-6.597153379e-014	-6.661338148e-015	2.288824908e-005	5.749082902e-006	1.409158358e-005	1.0
114	28.71803093	-6.597153379e-014	-6.661338148e-015	2.303910514e-005	5.785150734e-006	1.415885163e-005	1.0
[RightHandRing4]
113	24.54642296	5.63775155e-013	2.402592014e-015	-7.399228343e-005	-1.137667914e-005	-1.635546505e-005	1.0
114	24.54642296	5.63775155e-013	2.402592014e-015	-7.466951502e-005	-1.154995152e-005	-1.656586755e-005	1.0
[RightHandPinky0]
113	6.176146507	-0.8103749156	3.758100986	1.192708046e-015	-0	2.584200622e-014	1.0
114	6.176146507	-0.8103749156	3.758100986	1.192708046e-015	-0	2.584200622e-014	1.0
[RightHandPinky1]
113	58.19955444	2.842170943e-013	5.329070518e-014	7.044035556e-006	9.936190509e-006	2.231577673e-005	1.0
114	58.19955444	2.842170943e-013	5.329070518e-014	7.243231266e-006	9.709903679e-006	2.250512625e-005	1.0
[RightHandPinky2]
113	39.05205536	-9.498261552e-014	-1.859623566e-014	4.296927727e-005	-1.807273065e-006	-5.534212505e-006	1.0
114	39.05205536	-9.498261552e-014	-1.859623566e-014	4.311261728e-005	-1.885976303e-006	-5.422595677e-006	1.0
[RightHandPinky3]
113	20.92533112	-9.361543658e-014	5.342948306e-015	-6.768189633e-005	1.408045136e-005	-1.653313302e-005	1.0
114	20.92533112	-9.361543658e-014	5.342948306e-015	-6.820367707e-005	1.422893092e-005	-1.672160943e-005	1.0
[RightHandPinky4]
113	21.05566788	-2.827382425e-013	1.401656569e-014	-9.757371299e-005	-2.67530686e-005	-2.503430369e-005	1.0
114	21.05566788	-2.827382425e-013	1.401656569e-014	-9.836124809e-005	-2.66663701e-005	-2.508975012e-005	1.0
[LeftShoulder]
113	238.4311829	15.55310059	-71.25769043	-4.558204651	0.9991705418	-3.444719553	1.0
114	238.4311829	15.55310059	-71.25769043	-5.261444092	0.8408157825	-3.008575201	1.0
[LeftArm]
113	-141.8922424	0.006949160714	-5.426215033e-014	-14.33493233	-8.94334507	-65.75862122	1.0
114	-141.8922424	0.006949160714	-5.426215033e-014	-14.40124893	-10.4949131	-67.10453796	1.0
[LeftForeArm]
113	-295.6510925	0	-4.279579116e-006	4.340165469e-005	108.4366302	2.814286563e-005	1.0
114	-295.6510925	0	-4.279579116e-006	4.365428322e-005	107.8174133	2.839549416e-005	1.0
[LeftHand]
113	-253.9364624	2.786799769e-007	-5.565790161e-006	4.421638489	9.743613243	0.744663775	1.0
114	-253.9364624	2.786799769e-007	-5.565790161e-006	2.666040182	9.623236656	-1.317687273	1.0
[LeftFingerBase]
113	-21.81822968	-0.005536882672	-9.225585382e-005	1.987954647e-006	-1.029677605e-005	-4.598278792e-006	1.0
114	-21.81822968	-0.005536882672	-9.225585382e-005	2.040746267e-006	-1.052968491e-005	-4.750332209e-006	1.0
[LeftHandThumb1]
113	-0.3139604926	25.78034973	34.99176788	-1.387392967e-005	-2.173567555e-005	-1.554775554e-005	1.0
114	-0.3139604926	25.78034973	34.99176788	-1.395783784e-005	-2.190191117e-005	-1.557865835e-005	1.0
[LeftHandThumb2]
113	-22.53630829	0.0002837101929	0.001485430403	1.33554131e-005	-1.381688435e-005	1.408862045e-005	1.0
114	-22.53630829	0.0002837101929	0.001485430403	1.360630995e-005	-1.404369505e-005	1.416160649e-005	1.0
[LeftHandThumb3]
113	-35.04284286	-0.0001289721695	-0.005385319702	-1.013446126e-005	7.883458238e-006	-6.285474228e-006	1.0
114	-35.04284286	-0.0001289721695	-0.005385319702	-1.035265541e-005	8.081382475e-006	-6.410980859e-006	1.0
[LeftHandThumb4]
113	-32.93151093	9.614243027e-005	-0.001056680572	-1.302935971e-006	3.939593626e-006	-3.676949063e-006	1.0
114	-32.93151093	9.614243027e-005	-0.001056680572	-1.253433311e-006	3.991084213e-006	-3.688302741e-006	1.0
[LeftHandIndex0]
113	-7.949762821	0.6518924832	3.983615637	0	0	0	1.0
114	-7.949762821	0.6518924832	3.983615637	0	0	0	1.0
[LeftHandIndex1]
113	-71.33573914	4.009194527e-005	-0.0001216670644	1.198658629e-005	-5.372314718e-006	4.583625559e-005	1.0
114	-71.33573914	4.009194527e-005	-0.0001216670644	1.205445824e-005	-5.529253485e-006	4.644778528e-005	1.0
[LeftHandIndex2]
113	-42.80513763	-0.0004867216921	2.274473809e-005	2.257456981e-005	5.813006965e-007	-6.865097475e-006	1.0
114	-42.80513763	-0.0004867216921	2.274473809e-005	2.262480484e-005	6.590835824e-007	-6.889481028e-006	1.0
[LeftHandIndex3]
113	-24.93229675	-0.002930393675	7.19765012e-006	1.067803805e-005	7.477635791e-006	-4.564166375e-006	1.0
114	-24.93229675	-0.002930393675	7.19765012e-006	1.097393761e-005	7.452250429e-006	-4.715235264e-006	1.0
[LeftHandIndex4]
113	-28.05332565	-0.001307393424	-1.092151649e-007	1.957526365e-005	-4.529560556e-006	-1.996365972e-005	1.0
114	-28.05332565	-0.001307393424	-1.092151649e-007	1.965705815e-005	-4.489669664e-006	-2.01668372e-005	1.0
[LeftHandMiddle1]
113	-67.74446869	-0.8599894643	12.21582031	1.485635767e-005	8.940231055e-006	1.947859528e-005	1.0
114	-67.74446869	-0.8599894643	12.21582031	1.485522353e-005	8.975391211e-006	1.972055361e-005	1.0
[LeftHandMiddle2]
113	-49.20037079	-0.004143495578	-1.600813448e-005	-4.737532436e-006	5.332562068e-006	-1.768214133e-005	1.0
114	-49.20037079	-0.004143495578	-1.600813448e-005	-4.915065347e-006	5.264455012e-006	-1.78102764e-005	1.0
[LeftHandMiddle3]
113	-31.13726425	-0.004764806479	-5.678773596e-005	-1.454915264e-007	-7.117682344e-006	6.986173503e-006	1.0
114	-31.13726425	-0.004764806479	-5.678773596e-005	-7.423642501e-008	-7.083452601e-006	6.979386399e-006	1.0
[LeftHandMiddle4]
113	-26.62679863	0.007467714138	6.429820496e-005	5.350113042e-006	3.345532605e-006	-5.261830211e-006	1.0
114	-26.62679863	0.007467714138	6.429820496e-005	5.381752544e-006	3.332258302e-006	-5.254231382e-006	1.0
[LeftHandRing1]
113	-63.1511116	0.8645144105	-12.21551704	2.642332947e-005	5.811799383e-006	6.825037417e-006	1.0
114	-63.1511116	0.8645144105	-12.21551704	2.643063817e-005	5.739496828e-006	6.969860806e-006	1.0
[LeftHandRing2]
113	-47.11856842	0.0009522218024	-2.872048026e-005	-1.123305083e-005	1.454567246e-005	-2.901402922e-006	1.0
114	-47.11856842	0.0009522218024	-2.872048026e-005	-1.124611026e-005	1.471437645e-005	-2.958689947e-006	1.0
[LeftHandRing3]
113	-28.71741867	-0.002360836603	8.843826436e-006	1.712062112e-005	-4.368574537e-006	2.202099313e-005	1.0
114	-28.71741867	-0.002360836603	8.843826436e-006	1.721059562e-005	-4.384717158e-006	2.224990203e-005	1.0
[LeftHandRing4]
113	-24.54695129	0.002331606345	4.959414355e-007	1.644851e-005	-1.991495537e-006	4.399899808e-006	1.0
114	-24.54695129	0.002331606345	4.959414355e-007	1.658026667e-005	-2.005226406e-006	4.327583611e-006	1.0
[LeftHandPinky0]
113	-6.175186157	0.8125487566	-3.758023262	0	0	0	1.0
114	-6.175186157	0.8125487566	-3.758023262	0	0	0	1.0
[LeftHandPinky1]
113	-58.19955826	-0.001245321357	-6.914727419e-005	4.341996828e-005	-4.95761833e-006	4.431967682e-005	1.0
114	-58.19955826	-0.001245321357	-6.914727419e-005	4.381447798e-005	-4.960456408e-006	4.484579404e-005	1.0
[LeftHandPinky2]
113	-39.05273819	0.004963599145	-2.538270201e-005	-2.109156048e-005	2.125170431e-005	-1.272770442e-005	1.0
114	-39.05273819	0.004963599145	-2.538270201e-005	-2.130380199e-005	2.137865886e-005	-1.293373771e-005	1.0
[LeftHandPinky3]
113	-20.92480659	-0.004931366071	6.711302558e-005	4.3643563e-006	-1.45877475e-005	1.058581438e-005	1.0
114	-20.92480659	-0.004931366071	6.711302558e-005	4.229449587e-006	-1.46804723e-005	1.079819231e-005	1.0
[LeftHandPinky4]
113	-21.05467796	-0.0008227663347	-9.761578258e-005	1.996700121e-005	6.413811207e-006	-4.963435458e-006	1.0
114	-21.05467796	-0.0008227663347	-9.761578258e-005	1.987060932e-005	6.468531865e-006	-4.880041615e-006	1.0
[RightUpLeg]
113	-88.96710205	-52.84283066	-41.06762314	11.30717659	-7.469583988	-6.30958271	1.0
114	-88.96710205	-52.84283066	-41.06762314	9.730165482	-4.108743668	-4.820483208	1.0
[RightLeg]
113	436.7594604	-8.881784197e-014	-1.598721155e-013	3.803437039e-006	-4.738251686	7.296197873e-005	1.0
114	436.7594604	-8.881784197e-014	-1.598721155e-013	3.444812137e-006	-8.452764511	6.131987175e-005	1.0
[RightFoot]
113	453.1539612	-5.329070518e-014	-2.220446049e-013	2.868947744	0.2817972898	0.4751827717	1.0
114	453.1539612	-5.329070518e-014	-2.220446049e-013	3.179805279	0.4708949924	-1.153174877	1.0
[RightToeBase]
113	146.876709	-1.776356839e-014	-1.831867991e-014	1.298237112e-005	-1.234126739e-005	1.320765138	1.0
114	146.876709	-1.776356839e-014	-1.831867991e-014	1.316715316e-005	-1.248349963e-005	4.131260872	1.0
[RightToeEnd]
113	70.3217926	1.776356839e-013	-1.776356839e-014	0	0	0	1.0
114	70.3217926	1.776356839e-013	-1.776356839e-014	0	0	0	1.0
[LeftUpLeg]
113	88.96710205	-52.84285736	-41.06717682	29.06006813	22.16559219	26.03978348	1.0
114	88.96710205	-52.84285736	-41.06717682	28.6810894	21.37956238	23.73443413	1.0
[LeftLeg]
113	-436.7596436	7.105427358e-014	-3.488831862e-005	6.249113358e-005	-64.25964355	0.0006083312328	1.0
114	-436.7596436	7.105427358e-014	-3.488831862e-005	6.29206188e-005	-62.24716949	0.0007150298916	1.0
[LeftFoot]
113	-453.1542358	-7.105427358e-014	3.711377576e-005	15.34014511	-3.012545109	-5.43694067	1.0
114	-453.1542358	-7.105427358e-014	3.711377576e-005	14.21465492	-2.651190281	-5.547746658	1.0
[LeftToeBase]
113	-146.8766174	-1.302345117e-005	-3.889528671e-005	-2.633399163e-005	-9.191927347e-006	4.294183731	1.0
114	-146.8766174	-1.302345117e-005	-3.889528671e-005	-2.671171569e-005	-9.207718904e-006	4.692165375	1.0
[LeftToeEnd]
113	-70.32167053	7.620360702e-005	8.329622506e-005	0	0	0	1.0
114	-70.32167053	7.620360702e-005	8.329622506e-005	0	0	0	1.0
[EndOfFile]
